<svg width="238" height="156" viewBox="0 0 238 156" fill="none" xmlns="http://www.w3.org/2000/svg">
<path d="M16.3441 62.3722V55.2727H49.793V62.3722H37.3242V96H28.8129V62.3722H16.3441ZM55.3015 55.2727H65.9208L77.1367 82.6364H77.614L88.8299 55.2727H99.4492V96H91.0969V69.4915H90.7589L80.2191 95.8011H74.5316L63.9918 69.392H63.6538V96H55.3015V55.2727ZM120.186 96.5966C117.097 96.5966 114.425 95.9403 112.172 94.6278C109.931 93.3021 108.201 91.4593 106.981 89.0994C105.761 86.7263 105.152 83.9754 105.152 80.8466C105.152 77.6913 105.761 74.9337 106.981 72.5739C108.201 70.2008 109.931 68.358 112.172 67.0455C114.425 65.7197 117.097 65.0568 120.186 65.0568C123.275 65.0568 125.94 65.7197 128.18 67.0455C130.434 68.358 132.171 70.2008 133.39 72.5739C134.61 74.9337 135.22 77.6913 135.22 80.8466C135.22 83.9754 134.61 86.7263 133.39 89.0994C132.171 91.4593 130.434 93.3021 128.18 94.6278C125.94 95.9403 123.275 96.5966 120.186 96.5966ZM120.225 90.0341C121.631 90.0341 122.804 89.6364 123.745 88.8409C124.687 88.0322 125.396 86.9318 125.873 85.5398C126.364 84.1477 126.609 82.5634 126.609 80.7869C126.609 79.0104 126.364 77.4261 125.873 76.0341C125.396 74.642 124.687 73.5417 123.745 72.733C122.804 71.9242 121.631 71.5199 120.225 71.5199C118.807 71.5199 117.614 71.9242 116.646 72.733C115.691 73.5417 114.969 74.642 114.478 76.0341C114.001 77.4261 113.762 79.0104 113.762 80.7869C113.762 82.5634 114.001 84.1477 114.478 85.5398C114.969 86.9318 115.691 88.0322 116.646 88.8409C117.614 89.6364 118.807 90.0341 120.225 90.0341ZM149.2 78.3409V96H140.728V65.4545H148.802V70.8438H149.16C149.836 69.0672 150.97 67.6619 152.561 66.6278C154.152 65.5805 156.081 65.0568 158.348 65.0568C160.469 65.0568 162.318 65.5208 163.896 66.4489C165.474 67.3769 166.7 68.7027 167.575 70.4261C168.45 72.1364 168.887 74.178 168.887 76.5511V96H160.416V78.0625C160.429 76.1932 159.952 74.7348 158.984 73.6875C158.016 72.6269 156.684 72.0966 154.987 72.0966C153.847 72.0966 152.839 72.3419 151.964 72.8324C151.102 73.3229 150.426 74.0388 149.936 74.9801C149.458 75.9081 149.213 77.0284 149.2 78.3409ZM189.485 96.5966C186.343 96.5966 183.638 95.9602 181.371 94.6875C179.117 93.4015 177.381 91.5852 176.161 89.2386C174.941 86.8788 174.331 84.0881 174.331 80.8665C174.331 77.7244 174.941 74.9669 176.161 72.5938C177.381 70.2206 179.097 68.3712 181.311 67.0455C183.539 65.7197 186.15 65.0568 189.147 65.0568C191.162 65.0568 193.038 65.3816 194.775 66.0312C196.525 66.6676 198.049 67.6288 199.348 68.9148C200.661 70.2008 201.682 71.8182 202.411 73.767C203.14 75.7027 203.505 77.9697 203.505 80.5682V82.8949H177.712V77.6449H195.53C195.53 76.4252 195.265 75.3447 194.735 74.4034C194.204 73.4621 193.469 72.7263 192.527 72.196C191.599 71.6525 190.519 71.3807 189.286 71.3807C188 71.3807 186.86 71.679 185.865 72.2756C184.884 72.8589 184.115 73.6477 183.559 74.642C183.002 75.6231 182.717 76.7169 182.703 77.9233V82.9148C182.703 84.4261 182.982 85.732 183.539 86.8324C184.109 87.9328 184.911 88.7812 185.945 89.3778C186.979 89.9744 188.205 90.2727 189.624 90.2727C190.565 90.2727 191.427 90.1402 192.209 89.875C192.991 89.6098 193.661 89.2121 194.218 88.6818C194.775 88.1515 195.199 87.5019 195.49 86.733L203.326 87.25C202.928 89.1326 202.113 90.7765 200.88 92.1818C199.66 93.5739 198.082 94.661 196.147 95.4432C194.224 96.2121 192.004 96.5966 189.485 96.5966ZM213.443 107.455C212.369 107.455 211.361 107.368 210.42 107.196C209.492 107.037 208.723 106.831 208.113 106.58L210.022 100.256C211.017 100.561 211.912 100.726 212.707 100.753C213.516 100.779 214.212 100.594 214.795 100.196C215.392 99.7983 215.876 99.1222 216.247 98.1676L216.744 96.875L205.787 65.4545H214.696L221.02 87.8864H221.338L227.721 65.4545H236.69L224.818 99.3011C224.248 100.945 223.472 102.377 222.491 103.597C221.523 104.83 220.297 105.777 218.812 106.44C217.327 107.116 215.538 107.455 213.443 107.455Z" fill="white"/>
<g style="mix-blend-mode:overlay" filter="url(#filter0_f_3409_4287)">
<circle cx="37" cy="37" r="37" transform="matrix(-1 0 0 1 115 41)" fill="#EEE5FF"/>
</g>
<defs>
<filter id="filter0_f_3409_4287" x="0" y="0" width="156" height="156" filterUnits="userSpaceOnUse" color-interpolation-filters="sRGB">
<feFlood flood-opacity="0" result="BackgroundImageFix"/>
<feBlend mode="normal" in="SourceGraphic" in2="BackgroundImageFix" result="shape"/>
<feGaussianBlur stdDeviation="20.5" result="effect1_foregroundBlur_3409_4287"/>
</filter>
</defs>
</svg>
