<!DOCTYPE svg PUBLIC "-//W3C//DTD SVG 1.1//EN" "http://www.w3.org/Graphics/SVG/1.1/DTD/svg11.dtd">
<!-- Uploaded to: SVG Repo, www.svgrepo.com, Transformed by: SVG Repo Mixer Tools -->
<svg fill="#000000" height="64px" width="64px" version="1.1" id="Layer_1" xmlns="http://www.w3.org/2000/svg" xmlns:xlink="http://www.w3.org/1999/xlink" viewBox="0 0 512 512" xml:space="preserve">
<g id="SVGRepo_bgCarrier" stroke-width="0"/>
<g id="SVGRepo_tracerCarrier" stroke-linecap="round" stroke-linejoin="round"/>
<g id="SVGRepo_iconCarrier"> <g> <g> <path d="M308.364,75.636c-19.279,0-34.909,15.63-34.909,34.909v290.909c0-19.279,15.63-34.909,34.909-34.909h133.818V75.636 H308.364z"/> </g> </g> <g> <g> <path d="M203.636,75.636H69.818v290.909h133.818c19.279,0,34.909,15.63,34.909,34.909V110.545 C238.545,91.266,222.915,75.636,203.636,75.636z"/> </g> </g> <g> <g> <path d="M477.091,110.545v290.909H343.273c-19.279,0-34.909,15.63-34.909,34.909H512V110.545H477.091z"/> </g> </g> <g> <g> <path d="M168.727,401.455H34.909V110.545H0v325.818h203.636C203.636,417.085,188.006,401.455,168.727,401.455z"/> </g> </g> </g>
</svg>