<!DOCTYPE svg PUBLIC "-//W3C//DTD SVG 1.1//EN" "http://www.w3.org/Graphics/SVG/1.1/DTD/svg11.dtd">
<!-- Uploaded to: SVG Repo, www.svgrepo.com, Transformed by: SVG Repo Mixer Tools -->
<svg fill="#000000" width="64px" height="64px" viewBox="-2 -3.5 24 24" xmlns="http://www.w3.org/2000/svg" preserveAspectRatio="xMinYMin" class="jam jam-computer-f">
<g id="SVGRepo_bgCarrier" stroke-width="0"/>
<g id="SVGRepo_tracerCarrier" stroke-linecap="round" stroke-linejoin="round"/>
<g id="SVGRepo_iconCarrier">
<path d="M1 .565h5a1 1 0 0 1 1 1v14a1 1 0 0 1-1 1H1a1 1 0 0 1-1-1v-14a1 1 0 0 1 1-1zm0 11v2h2v-2H1zm9-8h8a2 2 0 0 1 2 2v6a2 2 0 0 1-2 2h-8a2 2 0 0 1-2-2v-6a2 2 0 0 1 2-2zm2 11h4a1 1 0 0 1 0 2h-4a1 1 0 0 1 0-2z"/>
</g>
</svg>