<!DOCTYPE svg PUBLIC "-//W3C//DTD SVG 1.1//EN" "http://www.w3.org/Graphics/SVG/1.1/DTD/svg11.dtd">
<!-- Uploaded to: SVG Repo, www.svgrepo.com, Transformed by: SVG Repo Mixer Tools -->
<svg fill="#000000" version="1.1" id="Capa_1" xmlns="http://www.w3.org/2000/svg" xmlns:xlink="http://www.w3.org/1999/xlink" viewBox="0 0 490 490" xml:space="preserve" width="64px" height="64px">
<g id="SVGRepo_bgCarrier" stroke-width="0"/>
<g id="SVGRepo_tracerCarrier" stroke-linecap="round" stroke-linejoin="round"/>
<g id="SVGRepo_iconCarrier"> <g> <g> <g> <rect x="0" width="58.3" height="490"/> <rect x="432.4" y="281.9" width="57.6" height="208.1"/> <rect x="80.1" y="255.5" width="73.9" height="31.9"/> <rect x="77.8" y="318.9" width="334.4" height="57.9"/> <path d="M312.7,0H154v158.3h158.3V0H312.7z M266.8,93.7h-19.1v19.1c0,7.9-6.4,14.4-14.4,14.4l0,0c-7.9,0-14.4-6.4-14.4-14.4V93.7 h-19.1c-7.9,0-14.4-6.4-14.4-14.4l0,0c0-7.9,6.4-14.4,14.4-14.4h19.1V45.5c0-7.9,6.4-14.4,14.4-14.4l0,0 c7.9,0,14.4,6.4,14.4,14.4v19.1h19.1c7.9,0,14.4,6.4,14.4,14.4v0.4C281.2,87.3,274.7,93.7,266.8,93.7z"/> </g> </g> </g> </g>
</svg>