<!DOCTYPE svg PUBLIC "-//W3C//DTD SVG 1.1//EN" "http://www.w3.org/Graphics/SVG/1.1/DTD/svg11.dtd">
<!-- Uploaded to: SVG Repo, www.svgrepo.com, Transformed by: SVG Repo Mixer Tools -->
<svg fill="#000000" height="64px" width="64px" version="1.1" xmlns="http://www.w3.org/2000/svg" viewBox="0 0 297 297" xmlns:xlink="http://www.w3.org/1999/xlink" enable-background="new 0 0 297 297">
<g id="SVGRepo_bgCarrier" stroke-width="0"/>
<g id="SVGRepo_tracerCarrier" stroke-linecap="round" stroke-linejoin="round"/>
<g id="SVGRepo_iconCarrier"> <g> <path d="m190.999,116.626v-106.742c0-3.744-2.114-7.166-5.464-8.841-3.347-1.674-7.354-1.313-10.35,0.934l-65.231,48.924c-2.488,1.866-3.953,4.796-3.953,7.906v57.819h84.998z"/> <path d="m197.424,130.463h-22.732v88.833c0,5.458-4.426,9.883-9.884,9.883-5.458,0-9.883-4.425-9.883-9.883v-88.833h-55.349c-5.458,0-9.883,4.425-9.883,9.883v146.771c0,5.458 4.425,9.884 9.883,9.884h97.848c5.458,0 9.883-4.426 9.883-9.884v-146.771c0-5.458-4.425-9.883-9.883-9.883zm-25.632,131.026c-1.838,1.838-4.388,2.896-6.987,2.896-2.599,0-5.14-1.059-6.987-2.896-1.839-1.838-2.896-4.389-2.896-6.987 0-2.6 1.058-5.149 2.896-6.988 1.838-1.839 4.389-2.896 6.987-2.896 2.6,0 5.149,1.057 6.987,2.896 1.849,1.839 2.896,4.389 2.896,6.988 0.001,2.598-1.047,5.149-2.896,6.987z"/> </g> </g>
</svg>